<svg width="55" height="55" fill="none" xmlns="http://www.w3.org/2000/svg"><rect x=".5" y=".5" width="54" height="54" rx="3.5" fill="#82B3D3" stroke="#82B3D3"/><path d="M26.1 32c.9 0 1.5-.1 2-.6.4-.4.6-1 .6-1.6 0-.7-.2-1.3-.7-1.7-.4-.3-1.2-.5-2.1-.5h-1.5v-1.4l2.4-3.3L28 22l-1.6.2H23V20h7.7v1.4l-2.8 3.8-1 .5v.1h1c.4 0 .8 0 1.2.2.5.2.8.5 1.1.8.4.3.6.7.8 1.2.2.5.3 1 .3 1.7s-.1 1.4-.4 2c-.3.6-.6 1-1 1.4-.5.4-1 .7-1.7.9-.6.2-1.3.3-2 .3-.6 0-1.2 0-1.8-.2-.6 0-1.1-.2-1.5-.4l.7-2.2a5.8 5.8 0 0 0 2.5.6Z" fill="#fff"/></svg>