<svg width="55" height="55" fill="none" xmlns="http://www.w3.org/2000/svg"><rect x=".5" y=".5" width="54" height="54" rx="3.5" fill="#82B3D3" stroke="#82B3D3"/><path d="M18.2 31.8H21v-7.9l.3-1.4-1 1.2-1.8 1.2-1-1.5 4.5-3.6h1.4v12h2.8V34h-8v-2.2ZM28.3 27c0-2.5.4-4.3 1.3-5.5.8-1.2 2-1.8 3.6-1.8 1.7 0 2.9.6 3.7 1.8A10 10 0 0 1 38 27c0 2.4-.5 4.3-1.3 5.5-.9 1.2-2 1.8-3.6 1.8-1.7 0-3-.6-3.7-1.9-.8-1.3-1.2-3-1.2-5.4Zm2.6 0c0 1.6.2 2.9.5 3.8.4.8 1 1.3 1.8 1.3s1.3-.4 1.7-1.2c.4-.9.6-2.1.6-4 0-1.5-.2-2.8-.6-3.7-.3-.8-.9-1.3-1.7-1.3-.8 0-1.4.4-1.8 1.3-.3.8-.5 2-.5 3.8Z" fill="#fff"/></svg>