<svg width="55" height="55" fill="none" xmlns="http://www.w3.org/2000/svg"><rect x=".5" y=".5" width="54" height="54" rx="3.5" fill="#82B3D3" stroke="#82B3D3"/><path d="M20.2 32.7c0-.5.1-.9.4-1.1.3-.3.7-.4 1.2-.4s1 .1 1.2.4c.3.2.4.6.4 1 0 .5-.1 1-.4 1.2-.3.3-.7.4-1.2.4s-.9-.1-1.2-.4c-.3-.3-.4-.7-.4-1.1Zm5.2 0c0-.5.1-.9.4-1.1.3-.3.7-.4 1.2-.4s.9.1 1.2.4c.3.2.4.6.4 1 0 .5-.1 1-.4 1.2-.3.3-.7.4-1.2.4s-.9-.1-1.2-.4c-.3-.3-.4-.7-.4-1.1Zm5.2 0c0-.5.1-.9.4-1.1.3-.3.7-.4 1.2-.4s.9.1 1.2.4c.2.2.4.6.4 1 0 .5-.2 1-.4 1.2-.3.3-.7.4-1.2.4s-1-.1-1.2-.4c-.3-.3-.4-.7-.4-1.1Z" fill="#fff"/></svg>